<svg width="33" height="33" viewBox="0 0 33 33" fill="none" xmlns="http://www.w3.org/2000/svg">
<rect width="16" height="16" rx="2" fill="#D9D9D9"/>
<path d="M11.5 5V4.5H5.5C4.94772 4.5 4.5 4.94772 4.5 5.5V10.5C4.5 11.0523 4.94772 11.5 5.5 11.5H10.5C11.0523 11.5 11.5 11.0523 11.5 10.5V9C11.5 8.44772 11.0523 8 10.5 8H8" stroke="#515151"/>
<rect x="17" width="16" height="16" rx="2" fill="#D9D9D9"/>
<path d="M21.5 10.5V5.5C21.5 4.94772 21.9477 4.5 22.5 4.5H27.5C28.0523 4.5 28.5 4.94772 28.5 5.5V10.5C28.5 11.0523 28.0523 11.5 27.5 11.5H22.5C21.9477 11.5 21.5 11.0523 21.5 10.5Z" stroke="#515151"/>
<rect y="17" width="16" height="16" rx="2" fill="#268024"/>
<path d="M4.5 29V25.5M4.5 25.5V22.5C4.5 21.9477 4.94772 21.5 5.5 21.5H10.5C11.0523 21.5 11.5 21.9477 11.5 22.5V24.5C11.5 25.0523 11.0523 25.5 10.5 25.5H10M4.5 25.5H8H10M10 25.5L10.7071 26.2071C10.8946 26.3946 11 26.649 11 26.9142V29" stroke="white"/>
<path d="M21.5 29V25.5M21.5 25.5V22.5C21.5 21.9477 21.9477 21.5 22.5 21.5H27.5C28.0523 21.5 28.5 21.9477 28.5 22.5V24.5C28.5 25.0523 28.0523 25.5 27.5 25.5H21.5Z" stroke="white"/>
<path d="M17.5 20.5V19C17.5 18.1716 18.1716 17.5 19 17.5H20.5M23.5 17.5H26.5M29.5 17.5H31C31.8284 17.5 32.5 18.1716 32.5 19V20.5M32.5 23.5V26.5M32.5 29.5V31C32.5 31.8284 31.8284 32.5 31 32.5H29.5M26.5 32.5H23.5M20.5 32.5H19C18.1716 32.5 17.5 31.8284 17.5 31V29.5M17.5 26.5V23.5" stroke="#268024"/>
</svg>
