<svg width="1072" height="256" viewBox="0 0 67 16" fill="none" xmlns="http://www.w3.org/2000/svg">
<rect width="16" height="16" rx="2" fill="#D9D9D9"/>
<path d="M11.5 5V4.5H5.5C4.94772 4.5 4.5 4.94772 4.5 5.5V10.5C4.5 11.0523 4.94772 11.5 5.5 11.5H10.5C11.0523 11.5 11.5 11.0523 11.5 10.5V9C11.5 8.44772 11.0523 8 10.5 8H8" stroke="#515151"/>
<rect x="17" width="16" height="16" rx="2" fill="#D9D9D9"/>
<path d="M21.5 10.5V5.5C21.5 4.94772 21.9477 4.5 22.5 4.5H27.5C28.0523 4.5 28.5 4.94772 28.5 5.5V10.5C28.5 11.0523 28.0523 11.5 27.5 11.5H22.5C21.9477 11.5 21.5 11.0523 21.5 10.5Z" stroke="#515151"/>
<rect x="34" width="16" height="16" rx="2" fill="#268024"/>
<path d="M38.5 12V8.5M38.5 8.5V5.5C38.5 4.94772 38.9477 4.5 39.5 4.5H44.5C45.0523 4.5 45.5 4.94772 45.5 5.5V7.5C45.5 8.05228 45.0523 8.5 44.5 8.5H44M38.5 8.5H42H44M44 8.5L44.7071 9.20711C44.8946 9.39464 45 9.649 45 9.91421V12" stroke="white"/>
<path d="M55.5 12V8.5M55.5 8.5V5.5C55.5 4.94772 55.9477 4.5 56.5 4.5H61.5C62.0523 4.5 62.5 4.94772 62.5 5.5V7.5C62.5 8.05228 62.0523 8.5 61.5 8.5H55.5Z" stroke="white"/>
<path d="M51.5 3.5V2C51.5 1.17157 52.1716 0.5 53 0.5H54.5M57.5 0.5H60.5M63.5 0.5H65C65.8284 0.5 66.5 1.17157 66.5 2V3.5M66.5 6.5V9.5M66.5 12.5V14C66.5 14.8284 65.8284 15.5 65 15.5H63.5M60.5 15.5H57.5M54.5 15.5H53C52.1716 15.5 51.5 14.8284 51.5 14V12.5M51.5 9.5V6.5" stroke="#268024"/>
</svg>
